<svg xmlns="http://www.w3.org/2000/svg" viewBox="0 0 1280 132" width="1280" height="132" role="img" aria-label="Contact">
<title>Contact</title>
<rect width="1280" height="132" fill="#0f1110"/>
<line x1="0" x2="1280" y1="1" y2="1" stroke="#2a2d2b"/>
<line x1="0" x2="1280" y1="131" y2="131" stroke="#2a2d2b"/>
<rect x="40.0" y="40.0" width="8.0" height="8.0" fill="#e8e9e4"/>
<rect x="40.0" y="50.0" width="8.0" height="8.0" fill="#e8e9e4"/>
<rect x="40.0" y="60.0" width="8.0" height="8.0" fill="#e8e9e4"/>
<rect x="40.0" y="70.0" width="8.0" height="8.0" fill="#e8e9e4"/>
<rect x="40.0" y="80.0" width="8.0" height="8.0" fill="#e8e9e4"/>
<rect x="50.0" y="30.0" width="8.0" height="8.0" fill="#e8e9e4"/>
<rect x="50.0" y="40.0" width="8.0" height="8.0" fill="#e8e9e4"/>
<rect x="50.0" y="50.0" width="8.0" height="8.0" fill="#e8e9e4"/>
<rect x="50.0" y="60.0" width="8.0" height="8.0" fill="#e8e9e4"/>
<rect x="50.0" y="70.0" width="8.0" height="8.0" fill="#e8e9e4"/>
<rect x="50.0" y="80.0" width="8.0" height="8.0" fill="#e8e9e4"/>
<rect x="50.0" y="90.0" width="8.0" height="8.0" fill="#e8e9e4"/>
<rect x="60.0" y="30.0" width="8.0" height="8.0" fill="#e8e9e4"/>
<rect x="60.0" y="90.0" width="8.0" height="8.0" fill="#e8e9e4"/>
<rect x="70.0" y="30.0" width="8.0" height="8.0" fill="#e8e9e4"/>
<rect x="70.0" y="90.0" width="8.0" height="8.0" fill="#e8e9e4"/>
<rect x="80.0" y="30.0" width="8.0" height="8.0" fill="#e8e9e4"/>
<rect x="80.0" y="90.0" width="8.0" height="8.0" fill="#e8e9e4"/>
<rect x="90.0" y="30.0" width="8.0" height="8.0" fill="#e8e9e4"/>
<rect x="90.0" y="90.0" width="8.0" height="8.0" fill="#e8e9e4"/>
<rect x="110.0" y="40.0" width="8.0" height="8.0" fill="#e8e9e4"/>
<rect x="110.0" y="50.0" width="8.0" height="8.0" fill="#e8e9e4"/>
<rect x="110.0" y="60.0" width="8.0" height="8.0" fill="#e8e9e4"/>
<rect x="110.0" y="70.0" width="8.0" height="8.0" fill="#e8e9e4"/>
<rect x="110.0" y="80.0" width="8.0" height="8.0" fill="#e8e9e4"/>
<rect x="120.0" y="30.0" width="8.0" height="8.0" fill="#e8e9e4"/>
<rect x="120.0" y="40.0" width="8.0" height="8.0" fill="#e8e9e4"/>
<rect x="120.0" y="50.0" width="8.0" height="8.0" fill="#e8e9e4"/>
<rect x="120.0" y="60.0" width="8.0" height="8.0" fill="#e8e9e4"/>
<rect x="120.0" y="70.0" width="8.0" height="8.0" fill="#e8e9e4"/>
<rect x="120.0" y="80.0" width="8.0" height="8.0" fill="#e8e9e4"/>
<rect x="120.0" y="90.0" width="8.0" height="8.0" fill="#e8e9e4"/>
<rect x="130.0" y="30.0" width="8.0" height="8.0" fill="#e8e9e4"/>
<rect x="130.0" y="90.0" width="8.0" height="8.0" fill="#e8e9e4"/>
<rect x="140.0" y="30.0" width="8.0" height="8.0" fill="#e8e9e4"/>
<rect x="140.0" y="90.0" width="8.0" height="8.0" fill="#e8e9e4"/>
<rect x="150.0" y="30.0" width="8.0" height="8.0" fill="#e8e9e4"/>
<rect x="150.0" y="40.0" width="8.0" height="8.0" fill="#e8e9e4"/>
<rect x="150.0" y="50.0" width="8.0" height="8.0" fill="#e8e9e4"/>
<rect x="150.0" y="60.0" width="8.0" height="8.0" fill="#e8e9e4"/>
<rect x="150.0" y="70.0" width="8.0" height="8.0" fill="#e8e9e4"/>
<rect x="150.0" y="80.0" width="8.0" height="8.0" fill="#e8e9e4"/>
<rect x="150.0" y="90.0" width="8.0" height="8.0" fill="#e8e9e4"/>
<rect x="160.0" y="40.0" width="8.0" height="8.0" fill="#e8e9e4"/>
<rect x="160.0" y="50.0" width="8.0" height="8.0" fill="#e8e9e4"/>
<rect x="160.0" y="60.0" width="8.0" height="8.0" fill="#e8e9e4"/>
<rect x="160.0" y="70.0" width="8.0" height="8.0" fill="#e8e9e4"/>
<rect x="160.0" y="80.0" width="8.0" height="8.0" fill="#e8e9e4"/>
<rect x="180.0" y="30.0" width="8.0" height="8.0" fill="#e8e9e4"/>
<rect x="180.0" y="40.0" width="8.0" height="8.0" fill="#e8e9e4"/>
<rect x="180.0" y="50.0" width="8.0" height="8.0" fill="#e8e9e4"/>
<rect x="180.0" y="60.0" width="8.0" height="8.0" fill="#e8e9e4"/>
<rect x="180.0" y="70.0" width="8.0" height="8.0" fill="#e8e9e4"/>
<rect x="180.0" y="80.0" width="8.0" height="8.0" fill="#e8e9e4"/>
<rect x="180.0" y="90.0" width="8.0" height="8.0" fill="#e8e9e4"/>
<rect x="190.0" y="30.0" width="8.0" height="8.0" fill="#e8e9e4"/>
<rect x="190.0" y="40.0" width="8.0" height="8.0" fill="#e8e9e4"/>
<rect x="190.0" y="50.0" width="8.0" height="8.0" fill="#e8e9e4"/>
<rect x="190.0" y="60.0" width="8.0" height="8.0" fill="#e8e9e4"/>
<rect x="190.0" y="70.0" width="8.0" height="8.0" fill="#e8e9e4"/>
<rect x="190.0" y="80.0" width="8.0" height="8.0" fill="#e8e9e4"/>
<rect x="190.0" y="90.0" width="8.0" height="8.0" fill="#e8e9e4"/>
<rect x="200.0" y="40.0" width="8.0" height="8.0" fill="#e8e9e4"/>
<rect x="200.0" y="50.0" width="8.0" height="8.0" fill="#e8e9e4"/>
<rect x="210.0" y="50.0" width="8.0" height="8.0" fill="#e8e9e4"/>
<rect x="210.0" y="60.0" width="8.0" height="8.0" fill="#e8e9e4"/>
<rect x="220.0" y="30.0" width="8.0" height="8.0" fill="#e8e9e4"/>
<rect x="220.0" y="40.0" width="8.0" height="8.0" fill="#e8e9e4"/>
<rect x="220.0" y="50.0" width="8.0" height="8.0" fill="#e8e9e4"/>
<rect x="220.0" y="60.0" width="8.0" height="8.0" fill="#e8e9e4"/>
<rect x="220.0" y="70.0" width="8.0" height="8.0" fill="#e8e9e4"/>
<rect x="220.0" y="80.0" width="8.0" height="8.0" fill="#e8e9e4"/>
<rect x="220.0" y="90.0" width="8.0" height="8.0" fill="#e8e9e4"/>
<rect x="230.0" y="30.0" width="8.0" height="8.0" fill="#e8e9e4"/>
<rect x="230.0" y="40.0" width="8.0" height="8.0" fill="#e8e9e4"/>
<rect x="230.0" y="50.0" width="8.0" height="8.0" fill="#e8e9e4"/>
<rect x="230.0" y="60.0" width="8.0" height="8.0" fill="#e8e9e4"/>
<rect x="230.0" y="70.0" width="8.0" height="8.0" fill="#e8e9e4"/>
<rect x="230.0" y="80.0" width="8.0" height="8.0" fill="#e8e9e4"/>
<rect x="230.0" y="90.0" width="8.0" height="8.0" fill="#e8e9e4"/>
<rect x="250.0" y="30.0" width="8.0" height="8.0" fill="#e8e9e4"/>
<rect x="260.0" y="30.0" width="8.0" height="8.0" fill="#e8e9e4"/>
<rect x="270.0" y="30.0" width="8.0" height="8.0" fill="#e8e9e4"/>
<rect x="270.0" y="40.0" width="8.0" height="8.0" fill="#e8e9e4"/>
<rect x="270.0" y="50.0" width="8.0" height="8.0" fill="#e8e9e4"/>
<rect x="270.0" y="60.0" width="8.0" height="8.0" fill="#e8e9e4"/>
<rect x="270.0" y="70.0" width="8.0" height="8.0" fill="#e8e9e4"/>
<rect x="270.0" y="80.0" width="8.0" height="8.0" fill="#e8e9e4"/>
<rect x="270.0" y="90.0" width="8.0" height="8.0" fill="#e8e9e4"/>
<rect x="280.0" y="30.0" width="8.0" height="8.0" fill="#e8e9e4"/>
<rect x="280.0" y="40.0" width="8.0" height="8.0" fill="#e8e9e4"/>
<rect x="280.0" y="50.0" width="8.0" height="8.0" fill="#e8e9e4"/>
<rect x="280.0" y="60.0" width="8.0" height="8.0" fill="#e8e9e4"/>
<rect x="280.0" y="70.0" width="8.0" height="8.0" fill="#e8e9e4"/>
<rect x="280.0" y="80.0" width="8.0" height="8.0" fill="#e8e9e4"/>
<rect x="280.0" y="90.0" width="8.0" height="8.0" fill="#e8e9e4"/>
<rect x="290.0" y="30.0" width="8.0" height="8.0" fill="#e8e9e4"/>
<rect x="300.0" y="30.0" width="8.0" height="8.0" fill="#e8e9e4"/>
<rect x="320.0" y="40.0" width="8.0" height="8.0" fill="#e8e9e4"/>
<rect x="320.0" y="50.0" width="8.0" height="8.0" fill="#e8e9e4"/>
<rect x="320.0" y="60.0" width="8.0" height="8.0" fill="#e8e9e4"/>
<rect x="320.0" y="70.0" width="8.0" height="8.0" fill="#e8e9e4"/>
<rect x="320.0" y="80.0" width="8.0" height="8.0" fill="#e8e9e4"/>
<rect x="320.0" y="90.0" width="8.0" height="8.0" fill="#e8e9e4"/>
<rect x="330.0" y="30.0" width="8.0" height="8.0" fill="#e8e9e4"/>
<rect x="330.0" y="40.0" width="8.0" height="8.0" fill="#e8e9e4"/>
<rect x="330.0" y="50.0" width="8.0" height="8.0" fill="#e8e9e4"/>
<rect x="330.0" y="60.0" width="8.0" height="8.0" fill="#e8e9e4"/>
<rect x="330.0" y="70.0" width="8.0" height="8.0" fill="#e8e9e4"/>
<rect x="330.0" y="80.0" width="8.0" height="8.0" fill="#e8e9e4"/>
<rect x="330.0" y="90.0" width="8.0" height="8.0" fill="#e8e9e4"/>
<rect x="340.0" y="30.0" width="8.0" height="8.0" fill="#e8e9e4"/>
<rect x="340.0" y="60.0" width="8.0" height="8.0" fill="#e8e9e4"/>
<rect x="350.0" y="30.0" width="8.0" height="8.0" fill="#e8e9e4"/>
<rect x="350.0" y="60.0" width="8.0" height="8.0" fill="#e8e9e4"/>
<rect x="360.0" y="30.0" width="8.0" height="8.0" fill="#e8e9e4"/>
<rect x="360.0" y="40.0" width="8.0" height="8.0" fill="#e8e9e4"/>
<rect x="360.0" y="50.0" width="8.0" height="8.0" fill="#e8e9e4"/>
<rect x="360.0" y="60.0" width="8.0" height="8.0" fill="#e8e9e4"/>
<rect x="360.0" y="70.0" width="8.0" height="8.0" fill="#e8e9e4"/>
<rect x="360.0" y="80.0" width="8.0" height="8.0" fill="#e8e9e4"/>
<rect x="360.0" y="90.0" width="8.0" height="8.0" fill="#e8e9e4"/>
<rect x="370.0" y="40.0" width="8.0" height="8.0" fill="#e8e9e4"/>
<rect x="370.0" y="50.0" width="8.0" height="8.0" fill="#e8e9e4"/>
<rect x="370.0" y="60.0" width="8.0" height="8.0" fill="#e8e9e4"/>
<rect x="370.0" y="70.0" width="8.0" height="8.0" fill="#e8e9e4"/>
<rect x="370.0" y="80.0" width="8.0" height="8.0" fill="#e8e9e4"/>
<rect x="370.0" y="90.0" width="8.0" height="8.0" fill="#e8e9e4"/>
<rect x="390.0" y="40.0" width="8.0" height="8.0" fill="#e8e9e4"/>
<rect x="390.0" y="50.0" width="8.0" height="8.0" fill="#e8e9e4"/>
<rect x="390.0" y="60.0" width="8.0" height="8.0" fill="#e8e9e4"/>
<rect x="390.0" y="70.0" width="8.0" height="8.0" fill="#e8e9e4"/>
<rect x="390.0" y="80.0" width="8.0" height="8.0" fill="#e8e9e4"/>
<rect x="400.0" y="30.0" width="8.0" height="8.0" fill="#e8e9e4"/>
<rect x="400.0" y="40.0" width="8.0" height="8.0" fill="#e8e9e4"/>
<rect x="400.0" y="50.0" width="8.0" height="8.0" fill="#e8e9e4"/>
<rect x="400.0" y="60.0" width="8.0" height="8.0" fill="#e8e9e4"/>
<rect x="400.0" y="70.0" width="8.0" height="8.0" fill="#e8e9e4"/>
<rect x="400.0" y="80.0" width="8.0" height="8.0" fill="#e8e9e4"/>
<rect x="400.0" y="90.0" width="8.0" height="8.0" fill="#e8e9e4"/>
<rect x="410.0" y="30.0" width="8.0" height="8.0" fill="#e8e9e4"/>
<rect x="410.0" y="90.0" width="8.0" height="8.0" fill="#e8e9e4"/>
<rect x="420.0" y="30.0" width="8.0" height="8.0" fill="#e8e9e4"/>
<rect x="420.0" y="90.0" width="8.0" height="8.0" fill="#e8e9e4"/>
<rect x="430.0" y="30.0" width="8.0" height="8.0" fill="#e8e9e4"/>
<rect x="430.0" y="90.0" width="8.0" height="8.0" fill="#e8e9e4"/>
<rect x="440.0" y="30.0" width="8.0" height="8.0" fill="#e8e9e4"/>
<rect x="440.0" y="90.0" width="8.0" height="8.0" fill="#e8e9e4"/>
<rect x="460.0" y="30.0" width="8.0" height="8.0" fill="#e8e9e4"/>
<rect x="470.0" y="30.0" width="8.0" height="8.0" fill="#e8e9e4"/>
<rect x="480.0" y="30.0" width="8.0" height="8.0" fill="#e8e9e4"/>
<rect x="480.0" y="40.0" width="8.0" height="8.0" fill="#e8e9e4"/>
<rect x="480.0" y="50.0" width="8.0" height="8.0" fill="#e8e9e4"/>
<rect x="480.0" y="60.0" width="8.0" height="8.0" fill="#e8e9e4"/>
<rect x="480.0" y="70.0" width="8.0" height="8.0" fill="#e8e9e4"/>
<rect x="480.0" y="80.0" width="8.0" height="8.0" fill="#e8e9e4"/>
<rect x="480.0" y="90.0" width="8.0" height="8.0" fill="#e8e9e4"/>
<rect x="490.0" y="30.0" width="8.0" height="8.0" fill="#e8e9e4"/>
<rect x="490.0" y="40.0" width="8.0" height="8.0" fill="#e8e9e4"/>
<rect x="490.0" y="50.0" width="8.0" height="8.0" fill="#e8e9e4"/>
<rect x="490.0" y="60.0" width="8.0" height="8.0" fill="#e8e9e4"/>
<rect x="490.0" y="70.0" width="8.0" height="8.0" fill="#e8e9e4"/>
<rect x="490.0" y="80.0" width="8.0" height="8.0" fill="#e8e9e4"/>
<rect x="490.0" y="90.0" width="8.0" height="8.0" fill="#e8e9e4"/>
<rect x="500.0" y="30.0" width="8.0" height="8.0" fill="#e8e9e4"/>
<rect x="510.0" y="30.0" width="8.0" height="8.0" fill="#e8e9e4"/>
<rect x="956.0" y="38.0" width="2" height="2" fill="#262927"/>
<rect x="968.0" y="38.0" width="2" height="2" fill="#262927"/>
<rect x="980.0" y="38.0" width="2" height="2" fill="#262927"/>
<rect x="988.0" y="34.0" width="10.0" height="10.0" fill="#ff6533"><animate attributeName="opacity" values="1;1;0;0;1" keyTimes="0;0.45;0.5;0.95;1" dur="5.7s" begin="0.5s" repeatCount="indefinite"/></rect>
<rect x="1000.0" y="34.0" width="10.0" height="10.0" fill="#ff6533"><animate attributeName="opacity" values="1;1;0;0;1" keyTimes="0;0.45;0.5;0.95;1" dur="4.4s" begin="1.9s" repeatCount="indefinite"/></rect>
<rect x="1012.0" y="34.0" width="10.0" height="10.0" fill="#e8e9e4"/>
<rect x="1028.0" y="38.0" width="2" height="2" fill="#262927"/>
<rect x="1040.0" y="38.0" width="2" height="2" fill="#262927"/>
<rect x="1052.0" y="38.0" width="2" height="2" fill="#262927"/>
<rect x="1064.0" y="38.0" width="2" height="2" fill="#262927"/>
<rect x="1076.0" y="38.0" width="2" height="2" fill="#262927"/>
<rect x="1088.0" y="38.0" width="2" height="2" fill="#262927"/>
<rect x="1100.0" y="38.0" width="2" height="2" fill="#262927"/>
<rect x="1112.0" y="38.0" width="2" height="2" fill="#262927"/>
<rect x="1124.0" y="38.0" width="2" height="2" fill="#262927"/>
<rect x="1132.0" y="34.0" width="10.0" height="10.0" fill="#ff6533"><animate attributeName="opacity" values="1;1;0;0;1" keyTimes="0;0.45;0.5;0.95;1" dur="5.9s" begin="1.5s" repeatCount="indefinite"/></rect>
<rect x="1148.0" y="38.0" width="2" height="2" fill="#262927"/>
<rect x="1160.0" y="38.0" width="2" height="2" fill="#262927"/>
<rect x="1172.0" y="38.0" width="2" height="2" fill="#262927"/>
<rect x="1184.0" y="38.0" width="2" height="2" fill="#262927"/>
<rect x="1192.0" y="34.0" width="10.0" height="10.0" fill="#e8e9e4"/>
<rect x="1208.0" y="38.0" width="2" height="2" fill="#262927"/>
<rect x="1220.0" y="38.0" width="2" height="2" fill="#262927"/>
<rect x="1232.0" y="38.0" width="2" height="2" fill="#262927"/>
<rect x="956.0" y="50.0" width="2" height="2" fill="#262927"/>
<rect x="968.0" y="50.0" width="2" height="2" fill="#262927"/>
<rect x="980.0" y="50.0" width="2" height="2" fill="#262927"/>
<rect x="988.0" y="46.0" width="10.0" height="10.0" fill="#e8e9e4"/>
<rect x="1004.0" y="50.0" width="2" height="2" fill="#262927"/>
<rect x="1016.0" y="50.0" width="2" height="2" fill="#262927"/>
<rect x="1028.0" y="50.0" width="2" height="2" fill="#262927"/>
<rect x="1040.0" y="50.0" width="2" height="2" fill="#262927"/>
<rect x="1052.0" y="50.0" width="2" height="2" fill="#262927"/>
<rect x="1064.0" y="50.0" width="2" height="2" fill="#262927"/>
<rect x="1072.0" y="46.0" width="10.0" height="10.0" fill="#ff6533"><animate attributeName="opacity" values="1;1;0;0;1" keyTimes="0;0.45;0.5;0.95;1" dur="4.0s" begin="2.3s" repeatCount="indefinite"/></rect>
<rect x="1088.0" y="50.0" width="2" height="2" fill="#262927"/>
<rect x="1100.0" y="50.0" width="2" height="2" fill="#262927"/>
<rect x="1112.0" y="50.0" width="2" height="2" fill="#262927"/>
<rect x="1120.0" y="46.0" width="10.0" height="10.0" fill="#e8e9e4"/>
<rect x="1136.0" y="50.0" width="2" height="2" fill="#262927"/>
<rect x="1148.0" y="50.0" width="2" height="2" fill="#262927"/>
<rect x="1160.0" y="50.0" width="2" height="2" fill="#262927"/>
<rect x="1168.0" y="46.0" width="10.0" height="10.0" fill="#ff6533"><animate attributeName="opacity" values="1;1;0;0;1" keyTimes="0;0.45;0.5;0.95;1" dur="3.8s" begin="3.6s" repeatCount="indefinite"/></rect>
<rect x="1184.0" y="50.0" width="2" height="2" fill="#262927"/>
<rect x="1196.0" y="50.0" width="2" height="2" fill="#262927"/>
<rect x="1204.0" y="46.0" width="10.0" height="10.0" fill="#e8e9e4"/>
<rect x="1216.0" y="46.0" width="10.0" height="10.0" fill="#ff6533"><animate attributeName="opacity" values="1;1;0;0;1" keyTimes="0;0.45;0.5;0.95;1" dur="5.6s" begin="2.9s" repeatCount="indefinite"/></rect>
<rect x="1232.0" y="50.0" width="2" height="2" fill="#262927"/>
<text x="1240" y="96" text-anchor="end" font-family="ui-monospace,SFMono-Regular,'SF Mono',Menlo,Consolas,monospace" font-size="16" fill="#9a9f9a">say hello</text>
</svg>
