<svg xmlns="http://www.w3.org/2000/svg" viewBox="0 0 900 330" width="900" height="330" role="img" aria-label="securevibe: A security scanner for code written fast. Finds the holes, proposes fixes, rescans to prove them.">
<title>securevibe: A security scanner for code written fast. Finds the holes, proposes fixes, rescans to prove them.</title>
<rect width="900" height="330" fill="#0f1110"/>
<rect x="0.5" y="0.5" width="899" height="329" fill="#141716" stroke="#2a2d2b"/>
<line x1="280" x2="280" y1="0" y2="330" stroke="#2a2d2b"/>
<rect x="41.5" y="55.5" width="2" height="2" fill="#262927"/>
<rect x="56.5" y="55.5" width="2" height="2" fill="#262927"/>
<rect x="71.5" y="55.5" width="2" height="2" fill="#262927"/>
<rect x="86.5" y="55.5" width="2" height="2" fill="#262927"/>
<rect x="101.5" y="55.5" width="2" height="2" fill="#262927"/>
<rect x="116.5" y="55.5" width="2" height="2" fill="#262927"/>
<rect x="131.5" y="55.5" width="2" height="2" fill="#262927"/>
<rect x="146.5" y="55.5" width="2" height="2" fill="#262927"/>
<rect x="161.5" y="55.5" width="2" height="2" fill="#262927"/>
<rect x="176.5" y="55.5" width="2" height="2" fill="#262927"/>
<rect x="191.5" y="55.5" width="2" height="2" fill="#262927"/>
<rect x="206.5" y="55.5" width="2" height="2" fill="#262927"/>
<rect x="221.5" y="55.5" width="2" height="2" fill="#262927"/>
<rect x="236.5" y="55.5" width="2" height="2" fill="#262927"/>
<rect x="41.5" y="70.5" width="2" height="2" fill="#262927"/>
<rect x="51.0" y="65.0" width="13" height="13" fill="#e8e9e4"><animate attributeName="opacity" values="0;0;1" keyTimes="0;0.574;1" dur="0.47s" fill="freeze"/></rect>
<rect x="66.0" y="65.0" width="13" height="13" fill="#e8e9e4"><animate attributeName="opacity" values="0;0;1" keyTimes="0;0.599;1" dur="0.50s" fill="freeze"/></rect>
<rect x="81.0" y="65.0" width="13" height="13" fill="#e8e9e4"><animate attributeName="opacity" values="0;0;1" keyTimes="0;0.577;1" dur="0.47s" fill="freeze"/></rect>
<rect x="96.0" y="65.0" width="13" height="13" fill="#e8e9e4"><animate attributeName="opacity" values="0;0;1" keyTimes="0;0.569;1" dur="0.46s" fill="freeze"/></rect>
<rect x="111.0" y="65.0" width="13" height="13" fill="#e8e9e4"><animate attributeName="opacity" values="0;0;1" keyTimes="0;0.556;1" dur="0.45s" fill="freeze"/></rect>
<rect x="126.0" y="65.0" width="13" height="13" fill="#e8e9e4"><animate attributeName="opacity" values="0;0;1" keyTimes="0;0.652;1" dur="0.57s" fill="freeze"/></rect>
<rect x="141.0" y="65.0" width="13" height="13" fill="#e8e9e4"><animate attributeName="opacity" values="0;0;1" keyTimes="0;0.649;1" dur="0.57s" fill="freeze"/></rect>
<rect x="156.0" y="65.0" width="13" height="13" fill="#e8e9e4"><animate attributeName="opacity" values="0;0;1" keyTimes="0;0.687;1" dur="0.64s" fill="freeze"/></rect>
<rect x="171.0" y="65.0" width="13" height="13" fill="#e8e9e4"><animate attributeName="opacity" values="0;0;1" keyTimes="0;0.670;1" dur="0.61s" fill="freeze"/></rect>
<rect x="186.0" y="65.0" width="13" height="13" fill="#e8e9e4"><animate attributeName="opacity" values="0;0;1" keyTimes="0;0.710;1" dur="0.69s" fill="freeze"/></rect>
<rect x="201.0" y="65.0" width="13" height="13" fill="#e8e9e4"><animate attributeName="opacity" values="0;0;1" keyTimes="0;0.688;1" dur="0.64s" fill="freeze"/></rect>
<rect x="216.0" y="65.0" width="13" height="13" fill="#e8e9e4"><animate attributeName="opacity" values="0;0;1" keyTimes="0;0.732;1" dur="0.75s" fill="freeze"/></rect>
<rect x="236.5" y="70.5" width="2" height="2" fill="#262927"/>
<rect x="41.5" y="85.5" width="2" height="2" fill="#262927"/>
<rect x="51.0" y="80.0" width="13" height="13" fill="#e8e9e4"><animate attributeName="opacity" values="0;0;1" keyTimes="0;0.587;1" dur="0.48s" fill="freeze"/></rect>
<rect x="66.0" y="80.0" width="13" height="13" fill="#ff6533"><animate attributeName="opacity" values="0;0;1" keyTimes="0;0.567;1" dur="0.46s" fill="freeze"/></rect>
<rect x="81.0" y="80.0" width="13" height="13" fill="#ff6533"><animate attributeName="opacity" values="0;0;1" keyTimes="0;0.605;1" dur="0.51s" fill="freeze"/></rect>
<rect x="96.0" y="80.0" width="13" height="13" fill="#ff6533"><animate attributeName="opacity" values="0;0;1" keyTimes="0;0.638;1" dur="0.55s" fill="freeze"/></rect>
<rect x="111.0" y="80.0" width="13" height="13" fill="#ff6533"><animate attributeName="opacity" values="0;0;1" keyTimes="0;0.603;1" dur="0.50s" fill="freeze"/></rect>
<rect x="126.0" y="80.0" width="13" height="13" fill="#ff6533"><animate attributeName="opacity" values="0;0;1" keyTimes="0;0.657;1" dur="0.58s" fill="freeze"/></rect>
<rect x="141.0" y="80.0" width="13" height="13" fill="#ff6533"><animate attributeName="opacity" values="0;0;1" keyTimes="0;0.690;1" dur="0.65s" fill="freeze"/></rect>
<rect x="156.0" y="80.0" width="13" height="13" fill="#ff6533"><animate attributeName="opacity" values="0;0;1" keyTimes="0;0.661;1" dur="0.59s" fill="freeze"/></rect>
<rect x="171.0" y="80.0" width="13" height="13" fill="#ff6533"><animate attributeName="opacity" values="0;0;1" keyTimes="0;0.712;1" dur="0.70s" fill="freeze"/></rect>
<rect x="186.0" y="80.0" width="13" height="13" fill="#ff6533"><animate attributeName="opacity" values="0;0;1" keyTimes="0;0.715;1" dur="0.70s" fill="freeze"/></rect>
<rect x="201.0" y="80.0" width="13" height="13" fill="#ff6533"><animate attributeName="opacity" values="0;0;1" keyTimes="0;0.734;1" dur="0.75s" fill="freeze"/></rect>
<rect x="216.0" y="80.0" width="13" height="13" fill="#e8e9e4"><animate attributeName="opacity" values="0;0;1" keyTimes="0;0.714;1" dur="0.70s" fill="freeze"/></rect>
<rect x="236.5" y="85.5" width="2" height="2" fill="#262927"/>
<rect x="41.5" y="100.5" width="2" height="2" fill="#262927"/>
<rect x="51.0" y="95.0" width="13" height="13" fill="#e8e9e4"><animate attributeName="opacity" values="0;0;1" keyTimes="0;0.517;1" dur="0.41s" fill="freeze"/></rect>
<rect x="66.0" y="95.0" width="13" height="13" fill="#ff6533"><animate attributeName="opacity" values="0;0;1" keyTimes="0;0.633;1" dur="0.55s" fill="freeze"/></rect>
<rect x="81.0" y="95.0" width="13" height="13" fill="#ff6533"><animate attributeName="opacity" values="0;0;1" keyTimes="0;0.650;1" dur="0.57s" fill="freeze"/></rect>
<rect x="96.0" y="95.0" width="13" height="13" fill="#ff6533"><animate attributeName="opacity" values="0;0;1" keyTimes="0;0.631;1" dur="0.54s" fill="freeze"/></rect>
<rect x="111.0" y="95.0" width="13" height="13" fill="#ff6533"><animate attributeName="opacity" values="0;0;1" keyTimes="0;0.611;1" dur="0.51s" fill="freeze"/></rect>
<rect x="126.0" y="95.0" width="13" height="13" fill="#ff6533"><animate attributeName="opacity" values="0;0;1" keyTimes="0;0.639;1" dur="0.55s" fill="freeze"/></rect>
<rect x="141.0" y="95.0" width="13" height="13" fill="#ff6533"><animate attributeName="opacity" values="0;0;1" keyTimes="0;0.690;1" dur="0.65s" fill="freeze"/></rect>
<rect x="156.0" y="95.0" width="13" height="13" fill="#ff6533"><animate attributeName="opacity" values="0;0;1" keyTimes="0;0.677;1" dur="0.62s" fill="freeze"/></rect>
<rect x="171.0" y="95.0" width="13" height="13" fill="#ff6533"><animate attributeName="opacity" values="0;0;1" keyTimes="0;0.731;1" dur="0.74s" fill="freeze"/></rect>
<rect x="186.0" y="95.0" width="13" height="13" fill="#ff6533"><animate attributeName="opacity" values="0;0;1" keyTimes="0;0.720;1" dur="0.71s" fill="freeze"/></rect>
<rect x="201.0" y="95.0" width="13" height="13" fill="#ff6533"><animate attributeName="opacity" values="0;0;1" keyTimes="0;0.706;1" dur="0.68s" fill="freeze"/></rect>
<rect x="216.0" y="95.0" width="13" height="13" fill="#e8e9e4"><animate attributeName="opacity" values="0;0;1" keyTimes="0;0.741;1" dur="0.77s" fill="freeze"/></rect>
<rect x="236.5" y="100.5" width="2" height="2" fill="#262927"/>
<rect x="41.5" y="115.5" width="2" height="2" fill="#262927"/>
<rect x="51.0" y="110.0" width="13" height="13" fill="#e8e9e4"><animate attributeName="opacity" values="0;0;1" keyTimes="0;0.583;1" dur="0.48s" fill="freeze"/></rect>
<rect x="66.0" y="110.0" width="13" height="13" fill="#ff6533"><animate attributeName="opacity" values="0;0;1" keyTimes="0;0.661;1" dur="0.59s" fill="freeze"/></rect>
<rect x="81.0" y="110.0" width="13" height="13" fill="#ff6533"><animate attributeName="opacity" values="0;0;1" keyTimes="0;0.673;1" dur="0.61s" fill="freeze"/></rect>
<rect x="96.0" y="110.0" width="13" height="13" fill="#ff6533"><animate attributeName="opacity" values="0;0;1" keyTimes="0;0.653;1" dur="0.58s" fill="freeze"/></rect>
<rect x="111.0" y="110.0" width="13" height="13" fill="#ff6533"><animate attributeName="opacity" values="0;0;1" keyTimes="0;0.678;1" dur="0.62s" fill="freeze"/></rect>
<rect x="126.0" y="110.0" width="13" height="13" fill="#ff6533"><animate attributeName="opacity" values="0;0;1" keyTimes="0;0.695;1" dur="0.65s" fill="freeze"/></rect>
<rect x="141.0" y="110.0" width="13" height="13" fill="#ff6533"><animate attributeName="opacity" values="0;0;1" keyTimes="0;0.713;1" dur="0.70s" fill="freeze"/></rect>
<rect x="156.0" y="110.0" width="13" height="13" fill="#ff6533"><animate attributeName="opacity" values="0;0;1" keyTimes="0;0.732;1" dur="0.75s" fill="freeze"/></rect>
<rect x="171.0" y="110.0" width="13" height="13" fill="#ff6533"><animate attributeName="opacity" values="0;0;1" keyTimes="0;0.682;1" dur="0.63s" fill="freeze"/></rect>
<rect x="186.0" y="110.0" width="13" height="13" fill="#ff6533"><animate attributeName="opacity" values="0;0;1" keyTimes="0;0.716;1" dur="0.70s" fill="freeze"/></rect>
<rect x="201.0" y="110.0" width="13" height="13" fill="#ff6533"><animate attributeName="opacity" values="0;0;1" keyTimes="0;0.739;1" dur="0.77s" fill="freeze"/></rect>
<rect x="216.0" y="110.0" width="13" height="13" fill="#e8e9e4"><animate attributeName="opacity" values="0;0;1" keyTimes="0;0.732;1" dur="0.75s" fill="freeze"/></rect>
<rect x="236.5" y="115.5" width="2" height="2" fill="#262927"/>
<rect x="41.5" y="130.5" width="2" height="2" fill="#262927"/>
<rect x="51.0" y="125.0" width="13" height="13" fill="#e8e9e4"><animate attributeName="opacity" values="0;0;1" keyTimes="0;0.629;1" dur="0.54s" fill="freeze"/></rect>
<rect x="66.0" y="125.0" width="13" height="13" fill="#ff6533"><animate attributeName="opacity" values="0;0;1" keyTimes="0;0.591;1" dur="0.49s" fill="freeze"/></rect>
<rect x="81.0" y="125.0" width="13" height="13" fill="#ff6533"><animate attributeName="opacity" values="0;0;1" keyTimes="0;0.684;1" dur="0.63s" fill="freeze"/></rect>
<rect x="96.0" y="125.0" width="13" height="13" fill="#ff6533"><animate attributeName="opacity" values="0;0;1" keyTimes="0;0.669;1" dur="0.60s" fill="freeze"/></rect>
<rect x="111.0" y="125.0" width="13" height="13" fill="#ff6533"><animate attributeName="opacity" values="0;0;1" keyTimes="0;0.648;1" dur="0.57s" fill="freeze"/></rect>
<rect x="126.0" y="125.0" width="13" height="13" fill="#ff6533"><animate attributeName="opacity" values="0;0;1" keyTimes="0;0.703;1" dur="0.67s" fill="freeze"/></rect>
<rect x="141.0" y="125.0" width="13" height="13" fill="#ff6533"><animate attributeName="opacity" values="0;0;1" keyTimes="0;0.691;1" dur="0.65s" fill="freeze"/></rect>
<rect x="156.0" y="125.0" width="13" height="13" fill="#ff6533"><animate attributeName="opacity" values="0;0;1" keyTimes="0;0.694;1" dur="0.65s" fill="freeze"/></rect>
<rect x="171.0" y="125.0" width="13" height="13" fill="#ff6533"><animate attributeName="opacity" values="0;0;1" keyTimes="0;0.723;1" dur="0.72s" fill="freeze"/></rect>
<rect x="186.0" y="125.0" width="13" height="13" fill="#ff6533"><animate attributeName="opacity" values="0;0;1" keyTimes="0;0.713;1" dur="0.70s" fill="freeze"/></rect>
<rect x="201.0" y="125.0" width="13" height="13" fill="#ff6533"><animate attributeName="opacity" values="0;0;1" keyTimes="0;0.727;1" dur="0.73s" fill="freeze"/></rect>
<rect x="216.0" y="125.0" width="13" height="13" fill="#e8e9e4"><animate attributeName="opacity" values="0;0;1" keyTimes="0;0.766;1" dur="0.85s" fill="freeze"/></rect>
<rect x="236.5" y="130.5" width="2" height="2" fill="#262927"/>
<rect x="41.5" y="145.5" width="2" height="2" fill="#262927"/>
<rect x="51.0" y="140.0" width="13" height="13" fill="#e8e9e4"><animate attributeName="opacity" values="0;0;1" keyTimes="0;0.655;1" dur="0.58s" fill="freeze"/></rect>
<rect x="66.0" y="140.0" width="13" height="13" fill="#ff6533"><animate attributeName="opacity" values="0;0;1" keyTimes="0;0.601;1" dur="0.50s" fill="freeze"/></rect>
<rect x="81.0" y="140.0" width="13" height="13" fill="#ff6533"><animate attributeName="opacity" values="0;0;1" keyTimes="0;0.688;1" dur="0.64s" fill="freeze"/></rect>
<rect x="96.0" y="140.0" width="13" height="13" fill="#ff6533"><animate attributeName="opacity" values="0;0;1" keyTimes="0;0.638;1" dur="0.55s" fill="freeze"/></rect>
<rect x="111.0" y="140.0" width="13" height="13" fill="#ff6533"><animate attributeName="opacity" values="0;0;1" keyTimes="0;0.680;1" dur="0.62s" fill="freeze"/></rect>
<rect x="126.0" y="140.0" width="13" height="13" fill="#ff6533"><animate attributeName="opacity" values="0;0;1" keyTimes="0;0.728;1" dur="0.74s" fill="freeze"/></rect>
<rect x="141.0" y="140.0" width="13" height="13" fill="#ff6533"><animate attributeName="opacity" values="0;0;1" keyTimes="0;0.721;1" dur="0.72s" fill="freeze"/></rect>
<rect x="156.0" y="140.0" width="13" height="13" fill="#ff6533"><animate attributeName="opacity" values="0;0;1" keyTimes="0;0.713;1" dur="0.70s" fill="freeze"/></rect>
<rect x="171.0" y="140.0" width="13" height="13" fill="#ff6533"><animate attributeName="opacity" values="0;0;1" keyTimes="0;0.727;1" dur="0.73s" fill="freeze"/></rect>
<rect x="186.0" y="140.0" width="13" height="13" fill="#ff6533"><animate attributeName="opacity" values="0;0;1" keyTimes="0;0.736;1" dur="0.76s" fill="freeze"/></rect>
<rect x="201.0" y="140.0" width="13" height="13" fill="#ff6533"><animate attributeName="opacity" values="0;0;1" keyTimes="0;0.731;1" dur="0.74s" fill="freeze"/></rect>
<rect x="216.0" y="140.0" width="13" height="13" fill="#e8e9e4"><animate attributeName="opacity" values="0;0;1" keyTimes="0;0.778;1" dur="0.90s" fill="freeze"/></rect>
<rect x="236.5" y="145.5" width="2" height="2" fill="#262927"/>
<rect x="41.5" y="160.5" width="2" height="2" fill="#262927"/>
<rect x="56.5" y="160.5" width="2" height="2" fill="#262927"/>
<rect x="66.0" y="155.0" width="13" height="13" fill="#e8e9e4"><animate attributeName="opacity" values="0;0;1" keyTimes="0;0.625;1" dur="0.53s" fill="freeze"/></rect>
<rect x="81.0" y="155.0" width="13" height="13" fill="#ff6533"><animate attributeName="opacity" values="0;0;1" keyTimes="0;0.674;1" dur="0.61s" fill="freeze"/></rect>
<rect x="96.0" y="155.0" width="13" height="13" fill="#ff6533"><animate attributeName="opacity" values="0;0;1" keyTimes="0;0.709;1" dur="0.69s" fill="freeze"/></rect>
<rect x="111.0" y="155.0" width="13" height="13" fill="#ff6533"><animate attributeName="opacity" values="0;0;1" keyTimes="0;0.697;1" dur="0.66s" fill="freeze"/></rect>
<rect x="126.0" y="155.0" width="13" height="13" fill="#ff6533"><animate attributeName="opacity" values="0;0;1" keyTimes="0;0.741;1" dur="0.77s" fill="freeze"/></rect>
<rect x="141.0" y="155.0" width="13" height="13" fill="#ff6533"><animate attributeName="opacity" values="0;0;1" keyTimes="0;0.709;1" dur="0.69s" fill="freeze"/></rect>
<rect x="156.0" y="155.0" width="13" height="13" fill="#ff6533"><animate attributeName="opacity" values="0;0;1" keyTimes="0;0.757;1" dur="0.82s" fill="freeze"/></rect>
<rect x="171.0" y="155.0" width="13" height="13" fill="#ff6533"><animate attributeName="opacity" values="0;0;1" keyTimes="0;0.760;1" dur="0.83s" fill="freeze"/></rect>
<rect x="186.0" y="155.0" width="13" height="13" fill="#ff6533"><animate attributeName="opacity" values="0;0;1" keyTimes="0;0.758;1" dur="0.83s" fill="freeze"/></rect>
<rect x="201.0" y="155.0" width="13" height="13" fill="#e8e9e4"><animate attributeName="opacity" values="0;0;1" keyTimes="0;0.774;1" dur="0.88s" fill="freeze"/></rect>
<rect x="221.5" y="160.5" width="2" height="2" fill="#262927"/>
<rect x="236.5" y="160.5" width="2" height="2" fill="#262927"/>
<rect x="41.5" y="175.5" width="2" height="2" fill="#262927"/>
<rect x="56.5" y="175.5" width="2" height="2" fill="#262927"/>
<rect x="71.5" y="175.5" width="2" height="2" fill="#262927"/>
<rect x="81.0" y="170.0" width="13" height="13" fill="#e8e9e4"><animate attributeName="opacity" values="0;0;1" keyTimes="0;0.689;1" dur="0.64s" fill="freeze"/></rect>
<rect x="96.0" y="170.0" width="13" height="13" fill="#ff6533"><animate attributeName="opacity" values="0;0;1" keyTimes="0;0.724;1" dur="0.72s" fill="freeze"/></rect>
<rect x="111.0" y="170.0" width="13" height="13" fill="#ff6533"><animate attributeName="opacity" values="0;0;1" keyTimes="0;0.731;1" dur="0.74s" fill="freeze"/></rect>
<rect x="126.0" y="170.0" width="13" height="13" fill="#ff6533"><animate attributeName="opacity" values="0;0;1" keyTimes="0;0.725;1" dur="0.73s" fill="freeze"/></rect>
<rect x="141.0" y="170.0" width="13" height="13" fill="#ff6533"><animate attributeName="opacity" values="0;0;1" keyTimes="0;0.732;1" dur="0.75s" fill="freeze"/></rect>
<rect x="156.0" y="170.0" width="13" height="13" fill="#ff6533"><animate attributeName="opacity" values="0;0;1" keyTimes="0;0.752;1" dur="0.81s" fill="freeze"/></rect>
<rect x="171.0" y="170.0" width="13" height="13" fill="#ff6533"><animate attributeName="opacity" values="0;0;1" keyTimes="0;0.746;1" dur="0.79s" fill="freeze"/></rect>
<rect x="186.0" y="170.0" width="13" height="13" fill="#e8e9e4"><animate attributeName="opacity" values="0;0;1" keyTimes="0;0.738;1" dur="0.76s" fill="freeze"/></rect>
<rect x="206.5" y="175.5" width="2" height="2" fill="#262927"/>
<rect x="221.5" y="175.5" width="2" height="2" fill="#262927"/>
<rect x="236.5" y="175.5" width="2" height="2" fill="#262927"/>
<rect x="41.5" y="190.5" width="2" height="2" fill="#262927"/>
<rect x="56.5" y="190.5" width="2" height="2" fill="#262927"/>
<rect x="71.5" y="190.5" width="2" height="2" fill="#262927"/>
<rect x="81.0" y="185.0" width="13" height="13" fill="#e8e9e4"><animate attributeName="opacity" values="0;0;1" keyTimes="0;0.719;1" dur="0.71s" fill="freeze"/></rect>
<rect x="96.0" y="185.0" width="13" height="13" fill="#ff6533"><animate attributeName="opacity" values="0;0;1" keyTimes="0;0.699;1" dur="0.66s" fill="freeze"/></rect>
<rect x="111.0" y="185.0" width="13" height="13" fill="#ff6533"><animate attributeName="opacity" values="0;0;1" keyTimes="0;0.723;1" dur="0.72s" fill="freeze"/></rect>
<rect x="126.0" y="185.0" width="13" height="13" fill="#ff6533"><animate attributeName="opacity" values="0;0;1" keyTimes="0;0.748;1" dur="0.79s" fill="freeze"/></rect>
<rect x="141.0" y="185.0" width="13" height="13" fill="#ff6533"><animate attributeName="opacity" values="0;0;1" keyTimes="0;0.724;1" dur="0.73s" fill="freeze"/></rect>
<rect x="156.0" y="185.0" width="13" height="13" fill="#ff6533"><animate attributeName="opacity" values="0;0;1" keyTimes="0;0.725;1" dur="0.73s" fill="freeze"/></rect>
<rect x="171.0" y="185.0" width="13" height="13" fill="#ff6533"><animate attributeName="opacity" values="0;0;1" keyTimes="0;0.740;1" dur="0.77s" fill="freeze"/></rect>
<rect x="186.0" y="185.0" width="13" height="13" fill="#e8e9e4"><animate attributeName="opacity" values="0;0;1" keyTimes="0;0.768;1" dur="0.86s" fill="freeze"/></rect>
<rect x="206.5" y="190.5" width="2" height="2" fill="#262927"/>
<rect x="221.5" y="190.5" width="2" height="2" fill="#262927"/>
<rect x="236.5" y="190.5" width="2" height="2" fill="#262927"/>
<rect x="41.5" y="205.5" width="2" height="2" fill="#262927"/>
<rect x="56.5" y="205.5" width="2" height="2" fill="#262927"/>
<rect x="71.5" y="205.5" width="2" height="2" fill="#262927"/>
<rect x="86.5" y="205.5" width="2" height="2" fill="#262927"/>
<rect x="96.0" y="200.0" width="13" height="13" fill="#e8e9e4"><animate attributeName="opacity" values="0;0;1" keyTimes="0;0.716;1" dur="0.70s" fill="freeze"/></rect>
<rect x="111.0" y="200.0" width="13" height="13" fill="#ff6533"><animate attributeName="opacity" values="0;0;1" keyTimes="0;0.720;1" dur="0.71s" fill="freeze"/></rect>
<rect x="126.0" y="200.0" width="13" height="13" fill="#ff6533"><animate attributeName="opacity" values="0;0;1" keyTimes="0;0.739;1" dur="0.77s" fill="freeze"/></rect>
<rect x="141.0" y="200.0" width="13" height="13" fill="#ff6533"><animate attributeName="opacity" values="0;0;1" keyTimes="0;0.769;1" dur="0.86s" fill="freeze"/></rect>
<rect x="156.0" y="200.0" width="13" height="13" fill="#ff6533"><animate attributeName="opacity" values="0;0;1" keyTimes="0;0.746;1" dur="0.79s" fill="freeze"/></rect>
<rect x="171.0" y="200.0" width="13" height="13" fill="#e8e9e4"><animate attributeName="opacity" values="0;0;1" keyTimes="0;0.761;1" dur="0.84s" fill="freeze"/></rect>
<rect x="191.5" y="205.5" width="2" height="2" fill="#262927"/>
<rect x="206.5" y="205.5" width="2" height="2" fill="#262927"/>
<rect x="221.5" y="205.5" width="2" height="2" fill="#262927"/>
<rect x="236.5" y="205.5" width="2" height="2" fill="#262927"/>
<rect x="41.5" y="220.5" width="2" height="2" fill="#262927"/>
<rect x="56.5" y="220.5" width="2" height="2" fill="#262927"/>
<rect x="71.5" y="220.5" width="2" height="2" fill="#262927"/>
<rect x="86.5" y="220.5" width="2" height="2" fill="#262927"/>
<rect x="101.5" y="220.5" width="2" height="2" fill="#262927"/>
<rect x="111.0" y="215.0" width="13" height="13" fill="#e8e9e4"><animate attributeName="opacity" values="0;0;1" keyTimes="0;0.760;1" dur="0.83s" fill="freeze"/></rect>
<rect x="126.0" y="215.0" width="13" height="13" fill="#ff6533"><animate attributeName="opacity" values="0;0;1" keyTimes="0;0.755;1" dur="0.82s" fill="freeze"/></rect>
<rect x="141.0" y="215.0" width="13" height="13" fill="#ff6533"><animate attributeName="opacity" values="0;0;1" keyTimes="0;0.747;1" dur="0.79s" fill="freeze"/></rect>
<rect x="156.0" y="215.0" width="13" height="13" fill="#e8e9e4"><animate attributeName="opacity" values="0;0;1" keyTimes="0;0.764;1" dur="0.85s" fill="freeze"/></rect>
<rect x="176.5" y="220.5" width="2" height="2" fill="#262927"/>
<rect x="191.5" y="220.5" width="2" height="2" fill="#262927"/>
<rect x="206.5" y="220.5" width="2" height="2" fill="#262927"/>
<rect x="221.5" y="220.5" width="2" height="2" fill="#262927"/>
<rect x="236.5" y="220.5" width="2" height="2" fill="#262927"/>
<rect x="41.5" y="235.5" width="2" height="2" fill="#262927"/>
<rect x="56.5" y="235.5" width="2" height="2" fill="#262927"/>
<rect x="71.5" y="235.5" width="2" height="2" fill="#262927"/>
<rect x="86.5" y="235.5" width="2" height="2" fill="#262927"/>
<rect x="101.5" y="235.5" width="2" height="2" fill="#262927"/>
<rect x="116.5" y="235.5" width="2" height="2" fill="#262927"/>
<rect x="126.0" y="230.0" width="13" height="13" fill="#e8e9e4"><animate attributeName="opacity" values="0;0;1" keyTimes="0;0.757;1" dur="0.82s" fill="freeze"/></rect>
<rect x="141.0" y="230.0" width="13" height="13" fill="#e8e9e4"><animate attributeName="opacity" values="0;0;1" keyTimes="0;0.749;1" dur="0.80s" fill="freeze"/></rect>
<rect x="161.5" y="235.5" width="2" height="2" fill="#262927"/>
<rect x="176.5" y="235.5" width="2" height="2" fill="#262927"/>
<rect x="191.5" y="235.5" width="2" height="2" fill="#262927"/>
<rect x="206.5" y="235.5" width="2" height="2" fill="#262927"/>
<rect x="221.5" y="235.5" width="2" height="2" fill="#262927"/>
<rect x="236.5" y="235.5" width="2" height="2" fill="#262927"/>
<rect x="41.5" y="250.5" width="2" height="2" fill="#262927"/>
<rect x="56.5" y="250.5" width="2" height="2" fill="#262927"/>
<rect x="71.5" y="250.5" width="2" height="2" fill="#262927"/>
<rect x="86.5" y="250.5" width="2" height="2" fill="#262927"/>
<rect x="101.5" y="250.5" width="2" height="2" fill="#262927"/>
<rect x="116.5" y="250.5" width="2" height="2" fill="#262927"/>
<rect x="131.5" y="250.5" width="2" height="2" fill="#262927"/>
<rect x="146.5" y="250.5" width="2" height="2" fill="#262927"/>
<rect x="161.5" y="250.5" width="2" height="2" fill="#262927"/>
<rect x="176.5" y="250.5" width="2" height="2" fill="#262927"/>
<rect x="191.5" y="250.5" width="2" height="2" fill="#262927"/>
<rect x="206.5" y="250.5" width="2" height="2" fill="#262927"/>
<rect x="221.5" y="250.5" width="2" height="2" fill="#262927"/>
<rect x="236.5" y="250.5" width="2" height="2" fill="#262927"/>
<rect x="314.0" y="57.0" width="4.0" height="4.0" fill="#e8e9e4"/>
<rect x="314.0" y="62.0" width="4.0" height="4.0" fill="#e8e9e4"/>
<rect x="314.0" y="82.0" width="4.0" height="4.0" fill="#e8e9e4"/>
<rect x="319.0" y="52.0" width="4.0" height="4.0" fill="#e8e9e4"/>
<rect x="319.0" y="57.0" width="4.0" height="4.0" fill="#e8e9e4"/>
<rect x="319.0" y="62.0" width="4.0" height="4.0" fill="#e8e9e4"/>
<rect x="319.0" y="67.0" width="4.0" height="4.0" fill="#e8e9e4"/>
<rect x="319.0" y="82.0" width="4.0" height="4.0" fill="#e8e9e4"/>
<rect x="324.0" y="52.0" width="4.0" height="4.0" fill="#e8e9e4"/>
<rect x="324.0" y="67.0" width="4.0" height="4.0" fill="#e8e9e4"/>
<rect x="324.0" y="82.0" width="4.0" height="4.0" fill="#e8e9e4"/>
<rect x="329.0" y="52.0" width="4.0" height="4.0" fill="#e8e9e4"/>
<rect x="329.0" y="67.0" width="4.0" height="4.0" fill="#e8e9e4"/>
<rect x="329.0" y="82.0" width="4.0" height="4.0" fill="#e8e9e4"/>
<rect x="334.0" y="52.0" width="4.0" height="4.0" fill="#e8e9e4"/>
<rect x="334.0" y="67.0" width="4.0" height="4.0" fill="#e8e9e4"/>
<rect x="334.0" y="72.0" width="4.0" height="4.0" fill="#e8e9e4"/>
<rect x="334.0" y="77.0" width="4.0" height="4.0" fill="#e8e9e4"/>
<rect x="334.0" y="82.0" width="4.0" height="4.0" fill="#e8e9e4"/>
<rect x="339.0" y="52.0" width="4.0" height="4.0" fill="#e8e9e4"/>
<rect x="339.0" y="72.0" width="4.0" height="4.0" fill="#e8e9e4"/>
<rect x="339.0" y="77.0" width="4.0" height="4.0" fill="#e8e9e4"/>
<rect x="349.0" y="52.0" width="4.0" height="4.0" fill="#e8e9e4"/>
<rect x="349.0" y="57.0" width="4.0" height="4.0" fill="#e8e9e4"/>
<rect x="349.0" y="62.0" width="4.0" height="4.0" fill="#e8e9e4"/>
<rect x="349.0" y="67.0" width="4.0" height="4.0" fill="#e8e9e4"/>
<rect x="349.0" y="72.0" width="4.0" height="4.0" fill="#e8e9e4"/>
<rect x="349.0" y="77.0" width="4.0" height="4.0" fill="#e8e9e4"/>
<rect x="349.0" y="82.0" width="4.0" height="4.0" fill="#e8e9e4"/>
<rect x="354.0" y="52.0" width="4.0" height="4.0" fill="#e8e9e4"/>
<rect x="354.0" y="57.0" width="4.0" height="4.0" fill="#e8e9e4"/>
<rect x="354.0" y="62.0" width="4.0" height="4.0" fill="#e8e9e4"/>
<rect x="354.0" y="67.0" width="4.0" height="4.0" fill="#e8e9e4"/>
<rect x="354.0" y="72.0" width="4.0" height="4.0" fill="#e8e9e4"/>
<rect x="354.0" y="77.0" width="4.0" height="4.0" fill="#e8e9e4"/>
<rect x="354.0" y="82.0" width="4.0" height="4.0" fill="#e8e9e4"/>
<rect x="359.0" y="52.0" width="4.0" height="4.0" fill="#e8e9e4"/>
<rect x="359.0" y="67.0" width="4.0" height="4.0" fill="#e8e9e4"/>
<rect x="359.0" y="82.0" width="4.0" height="4.0" fill="#e8e9e4"/>
<rect x="364.0" y="52.0" width="4.0" height="4.0" fill="#e8e9e4"/>
<rect x="364.0" y="67.0" width="4.0" height="4.0" fill="#e8e9e4"/>
<rect x="364.0" y="82.0" width="4.0" height="4.0" fill="#e8e9e4"/>
<rect x="369.0" y="52.0" width="4.0" height="4.0" fill="#e8e9e4"/>
<rect x="369.0" y="67.0" width="4.0" height="4.0" fill="#e8e9e4"/>
<rect x="369.0" y="82.0" width="4.0" height="4.0" fill="#e8e9e4"/>
<rect x="374.0" y="52.0" width="4.0" height="4.0" fill="#e8e9e4"/>
<rect x="374.0" y="82.0" width="4.0" height="4.0" fill="#e8e9e4"/>
<rect x="384.0" y="57.0" width="4.0" height="4.0" fill="#e8e9e4"/>
<rect x="384.0" y="62.0" width="4.0" height="4.0" fill="#e8e9e4"/>
<rect x="384.0" y="67.0" width="4.0" height="4.0" fill="#e8e9e4"/>
<rect x="384.0" y="72.0" width="4.0" height="4.0" fill="#e8e9e4"/>
<rect x="384.0" y="77.0" width="4.0" height="4.0" fill="#e8e9e4"/>
<rect x="389.0" y="52.0" width="4.0" height="4.0" fill="#e8e9e4"/>
<rect x="389.0" y="57.0" width="4.0" height="4.0" fill="#e8e9e4"/>
<rect x="389.0" y="62.0" width="4.0" height="4.0" fill="#e8e9e4"/>
<rect x="389.0" y="67.0" width="4.0" height="4.0" fill="#e8e9e4"/>
<rect x="389.0" y="72.0" width="4.0" height="4.0" fill="#e8e9e4"/>
<rect x="389.0" y="77.0" width="4.0" height="4.0" fill="#e8e9e4"/>
<rect x="389.0" y="82.0" width="4.0" height="4.0" fill="#e8e9e4"/>
<rect x="394.0" y="52.0" width="4.0" height="4.0" fill="#e8e9e4"/>
<rect x="394.0" y="82.0" width="4.0" height="4.0" fill="#e8e9e4"/>
<rect x="399.0" y="52.0" width="4.0" height="4.0" fill="#e8e9e4"/>
<rect x="399.0" y="82.0" width="4.0" height="4.0" fill="#e8e9e4"/>
<rect x="404.0" y="52.0" width="4.0" height="4.0" fill="#e8e9e4"/>
<rect x="404.0" y="82.0" width="4.0" height="4.0" fill="#e8e9e4"/>
<rect x="409.0" y="52.0" width="4.0" height="4.0" fill="#e8e9e4"/>
<rect x="409.0" y="82.0" width="4.0" height="4.0" fill="#e8e9e4"/>
<rect x="419.0" y="52.0" width="4.0" height="4.0" fill="#e8e9e4"/>
<rect x="419.0" y="57.0" width="4.0" height="4.0" fill="#e8e9e4"/>
<rect x="419.0" y="62.0" width="4.0" height="4.0" fill="#e8e9e4"/>
<rect x="419.0" y="67.0" width="4.0" height="4.0" fill="#e8e9e4"/>
<rect x="419.0" y="72.0" width="4.0" height="4.0" fill="#e8e9e4"/>
<rect x="419.0" y="77.0" width="4.0" height="4.0" fill="#e8e9e4"/>
<rect x="424.0" y="52.0" width="4.0" height="4.0" fill="#e8e9e4"/>
<rect x="424.0" y="57.0" width="4.0" height="4.0" fill="#e8e9e4"/>
<rect x="424.0" y="62.0" width="4.0" height="4.0" fill="#e8e9e4"/>
<rect x="424.0" y="67.0" width="4.0" height="4.0" fill="#e8e9e4"/>
<rect x="424.0" y="72.0" width="4.0" height="4.0" fill="#e8e9e4"/>
<rect x="424.0" y="77.0" width="4.0" height="4.0" fill="#e8e9e4"/>
<rect x="424.0" y="82.0" width="4.0" height="4.0" fill="#e8e9e4"/>
<rect x="429.0" y="82.0" width="4.0" height="4.0" fill="#e8e9e4"/>
<rect x="434.0" y="82.0" width="4.0" height="4.0" fill="#e8e9e4"/>
<rect x="439.0" y="52.0" width="4.0" height="4.0" fill="#e8e9e4"/>
<rect x="439.0" y="57.0" width="4.0" height="4.0" fill="#e8e9e4"/>
<rect x="439.0" y="62.0" width="4.0" height="4.0" fill="#e8e9e4"/>
<rect x="439.0" y="67.0" width="4.0" height="4.0" fill="#e8e9e4"/>
<rect x="439.0" y="72.0" width="4.0" height="4.0" fill="#e8e9e4"/>
<rect x="439.0" y="77.0" width="4.0" height="4.0" fill="#e8e9e4"/>
<rect x="439.0" y="82.0" width="4.0" height="4.0" fill="#e8e9e4"/>
<rect x="444.0" y="52.0" width="4.0" height="4.0" fill="#e8e9e4"/>
<rect x="444.0" y="57.0" width="4.0" height="4.0" fill="#e8e9e4"/>
<rect x="444.0" y="62.0" width="4.0" height="4.0" fill="#e8e9e4"/>
<rect x="444.0" y="67.0" width="4.0" height="4.0" fill="#e8e9e4"/>
<rect x="444.0" y="72.0" width="4.0" height="4.0" fill="#e8e9e4"/>
<rect x="444.0" y="77.0" width="4.0" height="4.0" fill="#e8e9e4"/>
<rect x="454.0" y="52.0" width="4.0" height="4.0" fill="#e8e9e4"/>
<rect x="454.0" y="57.0" width="4.0" height="4.0" fill="#e8e9e4"/>
<rect x="454.0" y="62.0" width="4.0" height="4.0" fill="#e8e9e4"/>
<rect x="454.0" y="67.0" width="4.0" height="4.0" fill="#e8e9e4"/>
<rect x="454.0" y="72.0" width="4.0" height="4.0" fill="#e8e9e4"/>
<rect x="454.0" y="77.0" width="4.0" height="4.0" fill="#e8e9e4"/>
<rect x="454.0" y="82.0" width="4.0" height="4.0" fill="#e8e9e4"/>
<rect x="459.0" y="52.0" width="4.0" height="4.0" fill="#e8e9e4"/>
<rect x="459.0" y="57.0" width="4.0" height="4.0" fill="#e8e9e4"/>
<rect x="459.0" y="62.0" width="4.0" height="4.0" fill="#e8e9e4"/>
<rect x="459.0" y="67.0" width="4.0" height="4.0" fill="#e8e9e4"/>
<rect x="459.0" y="72.0" width="4.0" height="4.0" fill="#e8e9e4"/>
<rect x="459.0" y="77.0" width="4.0" height="4.0" fill="#e8e9e4"/>
<rect x="459.0" y="82.0" width="4.0" height="4.0" fill="#e8e9e4"/>
<rect x="464.0" y="52.0" width="4.0" height="4.0" fill="#e8e9e4"/>
<rect x="464.0" y="67.0" width="4.0" height="4.0" fill="#e8e9e4"/>
<rect x="464.0" y="72.0" width="4.0" height="4.0" fill="#e8e9e4"/>
<rect x="469.0" y="52.0" width="4.0" height="4.0" fill="#e8e9e4"/>
<rect x="469.0" y="67.0" width="4.0" height="4.0" fill="#e8e9e4"/>
<rect x="469.0" y="72.0" width="4.0" height="4.0" fill="#e8e9e4"/>
<rect x="469.0" y="77.0" width="4.0" height="4.0" fill="#e8e9e4"/>
<rect x="474.0" y="52.0" width="4.0" height="4.0" fill="#e8e9e4"/>
<rect x="474.0" y="57.0" width="4.0" height="4.0" fill="#e8e9e4"/>
<rect x="474.0" y="62.0" width="4.0" height="4.0" fill="#e8e9e4"/>
<rect x="474.0" y="67.0" width="4.0" height="4.0" fill="#e8e9e4"/>
<rect x="474.0" y="77.0" width="4.0" height="4.0" fill="#e8e9e4"/>
<rect x="474.0" y="82.0" width="4.0" height="4.0" fill="#e8e9e4"/>
<rect x="479.0" y="57.0" width="4.0" height="4.0" fill="#e8e9e4"/>
<rect x="479.0" y="62.0" width="4.0" height="4.0" fill="#e8e9e4"/>
<rect x="479.0" y="82.0" width="4.0" height="4.0" fill="#e8e9e4"/>
<rect x="489.0" y="52.0" width="4.0" height="4.0" fill="#e8e9e4"/>
<rect x="489.0" y="57.0" width="4.0" height="4.0" fill="#e8e9e4"/>
<rect x="489.0" y="62.0" width="4.0" height="4.0" fill="#e8e9e4"/>
<rect x="489.0" y="67.0" width="4.0" height="4.0" fill="#e8e9e4"/>
<rect x="489.0" y="72.0" width="4.0" height="4.0" fill="#e8e9e4"/>
<rect x="489.0" y="77.0" width="4.0" height="4.0" fill="#e8e9e4"/>
<rect x="489.0" y="82.0" width="4.0" height="4.0" fill="#e8e9e4"/>
<rect x="494.0" y="52.0" width="4.0" height="4.0" fill="#e8e9e4"/>
<rect x="494.0" y="57.0" width="4.0" height="4.0" fill="#e8e9e4"/>
<rect x="494.0" y="62.0" width="4.0" height="4.0" fill="#e8e9e4"/>
<rect x="494.0" y="67.0" width="4.0" height="4.0" fill="#e8e9e4"/>
<rect x="494.0" y="72.0" width="4.0" height="4.0" fill="#e8e9e4"/>
<rect x="494.0" y="77.0" width="4.0" height="4.0" fill="#e8e9e4"/>
<rect x="494.0" y="82.0" width="4.0" height="4.0" fill="#e8e9e4"/>
<rect x="499.0" y="52.0" width="4.0" height="4.0" fill="#e8e9e4"/>
<rect x="499.0" y="67.0" width="4.0" height="4.0" fill="#e8e9e4"/>
<rect x="499.0" y="82.0" width="4.0" height="4.0" fill="#e8e9e4"/>
<rect x="504.0" y="52.0" width="4.0" height="4.0" fill="#e8e9e4"/>
<rect x="504.0" y="67.0" width="4.0" height="4.0" fill="#e8e9e4"/>
<rect x="504.0" y="82.0" width="4.0" height="4.0" fill="#e8e9e4"/>
<rect x="509.0" y="52.0" width="4.0" height="4.0" fill="#e8e9e4"/>
<rect x="509.0" y="67.0" width="4.0" height="4.0" fill="#e8e9e4"/>
<rect x="509.0" y="82.0" width="4.0" height="4.0" fill="#e8e9e4"/>
<rect x="514.0" y="52.0" width="4.0" height="4.0" fill="#e8e9e4"/>
<rect x="514.0" y="82.0" width="4.0" height="4.0" fill="#e8e9e4"/>
<rect x="524.0" y="52.0" width="4.0" height="4.0" fill="#e8e9e4"/>
<rect x="524.0" y="57.0" width="4.0" height="4.0" fill="#e8e9e4"/>
<rect x="524.0" y="62.0" width="4.0" height="4.0" fill="#e8e9e4"/>
<rect x="524.0" y="67.0" width="4.0" height="4.0" fill="#e8e9e4"/>
<rect x="524.0" y="72.0" width="4.0" height="4.0" fill="#e8e9e4"/>
<rect x="529.0" y="52.0" width="4.0" height="4.0" fill="#e8e9e4"/>
<rect x="529.0" y="57.0" width="4.0" height="4.0" fill="#e8e9e4"/>
<rect x="529.0" y="62.0" width="4.0" height="4.0" fill="#e8e9e4"/>
<rect x="529.0" y="67.0" width="4.0" height="4.0" fill="#e8e9e4"/>
<rect x="529.0" y="72.0" width="4.0" height="4.0" fill="#e8e9e4"/>
<rect x="529.0" y="77.0" width="4.0" height="4.0" fill="#e8e9e4"/>
<rect x="534.0" y="77.0" width="4.0" height="4.0" fill="#e8e9e4"/>
<rect x="534.0" y="82.0" width="4.0" height="4.0" fill="#e8e9e4"/>
<rect x="539.0" y="77.0" width="4.0" height="4.0" fill="#e8e9e4"/>
<rect x="539.0" y="82.0" width="4.0" height="4.0" fill="#e8e9e4"/>
<rect x="544.0" y="52.0" width="4.0" height="4.0" fill="#e8e9e4"/>
<rect x="544.0" y="57.0" width="4.0" height="4.0" fill="#e8e9e4"/>
<rect x="544.0" y="62.0" width="4.0" height="4.0" fill="#e8e9e4"/>
<rect x="544.0" y="67.0" width="4.0" height="4.0" fill="#e8e9e4"/>
<rect x="544.0" y="72.0" width="4.0" height="4.0" fill="#e8e9e4"/>
<rect x="544.0" y="77.0" width="4.0" height="4.0" fill="#e8e9e4"/>
<rect x="549.0" y="52.0" width="4.0" height="4.0" fill="#e8e9e4"/>
<rect x="549.0" y="57.0" width="4.0" height="4.0" fill="#e8e9e4"/>
<rect x="549.0" y="62.0" width="4.0" height="4.0" fill="#e8e9e4"/>
<rect x="549.0" y="67.0" width="4.0" height="4.0" fill="#e8e9e4"/>
<rect x="549.0" y="72.0" width="4.0" height="4.0" fill="#e8e9e4"/>
<rect x="559.0" y="52.0" width="4.0" height="4.0" fill="#e8e9e4"/>
<rect x="559.0" y="82.0" width="4.0" height="4.0" fill="#e8e9e4"/>
<rect x="564.0" y="52.0" width="4.0" height="4.0" fill="#e8e9e4"/>
<rect x="564.0" y="82.0" width="4.0" height="4.0" fill="#e8e9e4"/>
<rect x="569.0" y="52.0" width="4.0" height="4.0" fill="#e8e9e4"/>
<rect x="569.0" y="57.0" width="4.0" height="4.0" fill="#e8e9e4"/>
<rect x="569.0" y="62.0" width="4.0" height="4.0" fill="#e8e9e4"/>
<rect x="569.0" y="67.0" width="4.0" height="4.0" fill="#e8e9e4"/>
<rect x="569.0" y="72.0" width="4.0" height="4.0" fill="#e8e9e4"/>
<rect x="569.0" y="77.0" width="4.0" height="4.0" fill="#e8e9e4"/>
<rect x="569.0" y="82.0" width="4.0" height="4.0" fill="#e8e9e4"/>
<rect x="574.0" y="52.0" width="4.0" height="4.0" fill="#e8e9e4"/>
<rect x="574.0" y="57.0" width="4.0" height="4.0" fill="#e8e9e4"/>
<rect x="574.0" y="62.0" width="4.0" height="4.0" fill="#e8e9e4"/>
<rect x="574.0" y="67.0" width="4.0" height="4.0" fill="#e8e9e4"/>
<rect x="574.0" y="72.0" width="4.0" height="4.0" fill="#e8e9e4"/>
<rect x="574.0" y="77.0" width="4.0" height="4.0" fill="#e8e9e4"/>
<rect x="574.0" y="82.0" width="4.0" height="4.0" fill="#e8e9e4"/>
<rect x="579.0" y="52.0" width="4.0" height="4.0" fill="#e8e9e4"/>
<rect x="579.0" y="82.0" width="4.0" height="4.0" fill="#e8e9e4"/>
<rect x="584.0" y="52.0" width="4.0" height="4.0" fill="#e8e9e4"/>
<rect x="584.0" y="82.0" width="4.0" height="4.0" fill="#e8e9e4"/>
<rect x="594.0" y="52.0" width="4.0" height="4.0" fill="#e8e9e4"/>
<rect x="594.0" y="57.0" width="4.0" height="4.0" fill="#e8e9e4"/>
<rect x="594.0" y="62.0" width="4.0" height="4.0" fill="#e8e9e4"/>
<rect x="594.0" y="67.0" width="4.0" height="4.0" fill="#e8e9e4"/>
<rect x="594.0" y="72.0" width="4.0" height="4.0" fill="#e8e9e4"/>
<rect x="594.0" y="77.0" width="4.0" height="4.0" fill="#e8e9e4"/>
<rect x="594.0" y="82.0" width="4.0" height="4.0" fill="#e8e9e4"/>
<rect x="599.0" y="52.0" width="4.0" height="4.0" fill="#e8e9e4"/>
<rect x="599.0" y="57.0" width="4.0" height="4.0" fill="#e8e9e4"/>
<rect x="599.0" y="62.0" width="4.0" height="4.0" fill="#e8e9e4"/>
<rect x="599.0" y="67.0" width="4.0" height="4.0" fill="#e8e9e4"/>
<rect x="599.0" y="72.0" width="4.0" height="4.0" fill="#e8e9e4"/>
<rect x="599.0" y="77.0" width="4.0" height="4.0" fill="#e8e9e4"/>
<rect x="599.0" y="82.0" width="4.0" height="4.0" fill="#e8e9e4"/>
<rect x="604.0" y="52.0" width="4.0" height="4.0" fill="#e8e9e4"/>
<rect x="604.0" y="67.0" width="4.0" height="4.0" fill="#e8e9e4"/>
<rect x="604.0" y="82.0" width="4.0" height="4.0" fill="#e8e9e4"/>
<rect x="609.0" y="52.0" width="4.0" height="4.0" fill="#e8e9e4"/>
<rect x="609.0" y="67.0" width="4.0" height="4.0" fill="#e8e9e4"/>
<rect x="609.0" y="82.0" width="4.0" height="4.0" fill="#e8e9e4"/>
<rect x="614.0" y="52.0" width="4.0" height="4.0" fill="#e8e9e4"/>
<rect x="614.0" y="57.0" width="4.0" height="4.0" fill="#e8e9e4"/>
<rect x="614.0" y="62.0" width="4.0" height="4.0" fill="#e8e9e4"/>
<rect x="614.0" y="67.0" width="4.0" height="4.0" fill="#e8e9e4"/>
<rect x="614.0" y="72.0" width="4.0" height="4.0" fill="#e8e9e4"/>
<rect x="614.0" y="77.0" width="4.0" height="4.0" fill="#e8e9e4"/>
<rect x="614.0" y="82.0" width="4.0" height="4.0" fill="#e8e9e4"/>
<rect x="619.0" y="57.0" width="4.0" height="4.0" fill="#e8e9e4"/>
<rect x="619.0" y="62.0" width="4.0" height="4.0" fill="#e8e9e4"/>
<rect x="619.0" y="72.0" width="4.0" height="4.0" fill="#e8e9e4"/>
<rect x="619.0" y="77.0" width="4.0" height="4.0" fill="#e8e9e4"/>
<rect x="629.0" y="52.0" width="4.0" height="4.0" fill="#e8e9e4"/>
<rect x="629.0" y="57.0" width="4.0" height="4.0" fill="#e8e9e4"/>
<rect x="629.0" y="62.0" width="4.0" height="4.0" fill="#e8e9e4"/>
<rect x="629.0" y="67.0" width="4.0" height="4.0" fill="#e8e9e4"/>
<rect x="629.0" y="72.0" width="4.0" height="4.0" fill="#e8e9e4"/>
<rect x="629.0" y="77.0" width="4.0" height="4.0" fill="#e8e9e4"/>
<rect x="629.0" y="82.0" width="4.0" height="4.0" fill="#e8e9e4"/>
<rect x="634.0" y="52.0" width="4.0" height="4.0" fill="#e8e9e4"/>
<rect x="634.0" y="57.0" width="4.0" height="4.0" fill="#e8e9e4"/>
<rect x="634.0" y="62.0" width="4.0" height="4.0" fill="#e8e9e4"/>
<rect x="634.0" y="67.0" width="4.0" height="4.0" fill="#e8e9e4"/>
<rect x="634.0" y="72.0" width="4.0" height="4.0" fill="#e8e9e4"/>
<rect x="634.0" y="77.0" width="4.0" height="4.0" fill="#e8e9e4"/>
<rect x="634.0" y="82.0" width="4.0" height="4.0" fill="#e8e9e4"/>
<rect x="639.0" y="52.0" width="4.0" height="4.0" fill="#e8e9e4"/>
<rect x="639.0" y="67.0" width="4.0" height="4.0" fill="#e8e9e4"/>
<rect x="639.0" y="82.0" width="4.0" height="4.0" fill="#e8e9e4"/>
<rect x="644.0" y="52.0" width="4.0" height="4.0" fill="#e8e9e4"/>
<rect x="644.0" y="67.0" width="4.0" height="4.0" fill="#e8e9e4"/>
<rect x="644.0" y="82.0" width="4.0" height="4.0" fill="#e8e9e4"/>
<rect x="649.0" y="52.0" width="4.0" height="4.0" fill="#e8e9e4"/>
<rect x="649.0" y="67.0" width="4.0" height="4.0" fill="#e8e9e4"/>
<rect x="649.0" y="82.0" width="4.0" height="4.0" fill="#e8e9e4"/>
<rect x="654.0" y="52.0" width="4.0" height="4.0" fill="#e8e9e4"/>
<rect x="654.0" y="82.0" width="4.0" height="4.0" fill="#e8e9e4"/>
<rect x="314.5" y="104.5" width="73.6" height="30" fill="none" stroke="#2a2d2b"/>
<rect x="324" y="116" width="7" height="7" fill="#ff6533"/>
<text x="338" y="124.5" font-family="ui-monospace,SFMono-Regular,'SF Mono',Menlo,Consolas,monospace" font-size="16" fill="#9a9f9a">on npm</text>
<text x="314" y="180" font-family="-apple-system,BlinkMacSystemFont,'Segoe UI',Helvetica,Arial,sans-serif" font-size="25" fill="#e8e9e4">A security scanner for code written</text>
<text x="314" y="214" font-family="-apple-system,BlinkMacSystemFont,'Segoe UI',Helvetica,Arial,sans-serif" font-size="25" fill="#e8e9e4">fast. Finds the holes, proposes fixes,</text>
<text x="314" y="248" font-family="-apple-system,BlinkMacSystemFont,'Segoe UI',Helvetica,Arial,sans-serif" font-size="25" fill="#e8e9e4">rescans to prove them.</text>
<line x1="314" x2="864" y1="286" y2="286" stroke="#2a2d2b"/>
<text x="314" y="314" font-family="ui-monospace,SFMono-Regular,'SF Mono',Menlo,Consolas,monospace" font-size="16" fill="#9a9f9a">npm i -g securevibe</text>
</svg>
